<svg id="Layer_1" data-name="Layer 1" xmlns="http://www.w3.org/2000/svg" width="256" height="256" viewBox="0 0 256 256"><defs><style>.cls-1{fill:#710091;}.cls-2{fill:#fff;}</style></defs><rect class="cls-1" width="256" height="256"/><path class="cls-2" d="M56.76,120h0a100.68,100.68,0,0,1-15.19,1.46,48.28,48.28,0,0,1-9.83-.84A30.11,30.11,0,0,1,24.4,118h0q-7.75-4-9-11.21h0q-.48-3.73,2-4.58h0a5,5,0,0,1,1.74-.26,5.08,5.08,0,0,1,2.1.49h0q4,2.88,13.85,4.35h0a29.38,29.38,0,0,0,3.61.3c.91,0,2.09,0,3.56-.12s3-.25,4.66-.49h0a28.21,28.21,0,0,0,9.57-2.84,45.66,45.66,0,0,0,6.66-4.38c2-1.6,3.87-3.18,5.63-4.73h0L73.91,90q5.15-4.58,9.37-6a22.36,22.36,0,0,1,6.6-1.4,14.53,14.53,0,0,1,4.51.69,24.14,24.14,0,0,1,4.25,1.94h0q5.4,3,5.4,6.38h0q0,4.4-4.92,9.78h0a38.46,38.46,0,0,1-12.31,8.88h0q-22.28,26.73-25.52,31h0L70,144.38q16.25,6.12,24.4,6.12h0q4.27,0,10.29-3.48h0a14.35,14.35,0,0,0,3.43-2.76h0q3-3.25,5.81-3.26a4.93,4.93,0,0,1,4.13,1.67,4.69,4.69,0,0,1,.87,4,18.87,18.87,0,0,1-1.87,5,42,42,0,0,1-3.59,5.56,59.11,59.11,0,0,1-5,5.84,47.13,47.13,0,0,1-6.1,5.22h0q-7.42,5.14-14.1,5.14h0q-4.41,0-13.9-2.86h0l-22.61-6.68c-2.93-.86-5.71-1.59-8.32-2.21h0a34.09,34.09,0,0,1-17,8.2h0a48.36,48.36,0,0,1-7,.48,14.2,14.2,0,0,1-5.76-.94,7.73,7.73,0,0,1-3.2-2.49h0c-1.18-1.7-1.77-4.36-1.77-8h0q0-3.12,4.89-8.5h0a46,46,0,0,1,18.87-12.8h0a20,20,0,0,1,6.4-1.28,45.78,45.78,0,0,1,5.86.41h0Q55.45,123.75,56.76,120Zm27.05-8.45-.43.11c-.15.2-.19.29-.1.25a4.82,4.82,0,0,0,.53-.36Zm141.37-4.42h0q-6.08,0-8.45-5.76h0q-8.8,0-19.35,4.3h0q-6.56,2.68-8.84,5c-1.5,1.51-2.3,2.68-2.4,3.54a2.18,2.18,0,0,0,1.25,2.17,16.86,16.86,0,0,0,3.94,1.69q2.56.79,5.92,1.59h0q17.64,4.13,22.37,5.71h0q9.38,3.12,14,6.86h0a12.6,12.6,0,0,1,4.42,10.16h0a13.08,13.08,0,0,1-3.27,9,31.53,31.53,0,0,1-8.68,6.56,81.32,81.32,0,0,1-12,5.12,133.37,133.37,0,0,1-14,3.81q-7.38,1.59-14.54,2.64h0a176.89,176.89,0,0,1-24,2h0q-18.06,0-27.86-4.35h0q-3.68-1.67-6-8.27h0a29.4,29.4,0,0,1-1.85-9c0-2.34.21-3.63.62-3.89a4.28,4.28,0,0,1,2.53,0c1.27.22,2.91.59,4.94,1.12h0l7.35,2a148.58,148.58,0,0,0,36.15,4.28h0a96.57,96.57,0,0,0,23.75-2.51h0c3.84-1,5.89-2.17,6.15-3.43h0q.23-1.63-9.06-4.1h0c-2.84-.78-6.1-1.6-9.81-2.45h0q-27-6.56-32.59-8.45c-3.72-1.27-6.14-2.39-7.27-3.38a14.9,14.9,0,0,1-2.79-3.23h0a13.49,13.49,0,0,1-2-6.65,27.47,27.47,0,0,1,.33-4.87,16.56,16.56,0,0,1,1-3.2h0a8,8,0,0,1,3.25-4.09h0q15.72-8.8,46.23-15.49h0q27.13-6,44.65-6h0a9.35,9.35,0,0,1,5.32,1.23h0q3.08,2.28,2.71,4.84a14.11,14.11,0,0,1-1.56,4.76,17,17,0,0,1-3,3.92,21.46,21.46,0,0,1-4,3,24.93,24.93,0,0,1-4.51,2.18h0A26.1,26.1,0,0,1,225.18,107.14Z"/></svg>